<?xml version="1.0" encoding="UTF-8"?>
<svg id="Layer_2" data-name="Layer 2" xmlns="http://www.w3.org/2000/svg" xmlns:xlink="http://www.w3.org/1999/xlink" viewBox="0 0 990.29 60.64">
  <defs>
    <style>
      .cls-1 {
        fill: #fff;
      }

      .cls-2 {
        clip-path: url(#clippath);
      }

      .cls-3 {
        fill: none;
      }
    </style>
    <clipPath id="clippath">
      <rect class="cls-3" width="990.29" height="60.64"/>
    </clipPath>
  </defs>
  <g id="Layer_3" data-name="Layer 3">
    <g class="cls-2">
      <g>
        <g>
          <path class="cls-1" d="m12.89,0h-.01c.19,12.59-10.01,13.22-12.87,13.15,2.84.25,12.88,1.91,12.87,13.07h.01c0-11.33,11.41-12.91,13.34-13.09-.18.01-.44.02-.76.02-3.2,0-12.65-1.02-12.58-13.15Z"/>
          <path class="cls-1" d="m39.11,34.35h-.01c.19,12.59-10.01,13.22-12.87,13.15,2.84.25,12.88,1.91,12.87,13.07h.01c0-11.33,11.41-12.91,13.34-13.09-.18.01-.44.02-.76.02-3.2,0-12.65-1.02-12.58-13.15Z"/>
        </g>
        <g>
          <path class="cls-1" d="m75.33,0h-.01c.19,12.59-10.01,13.22-12.87,13.15,2.84.25,12.88,1.91,12.87,13.07h.01c0-11.33,11.41-12.91,13.34-13.09-.18.01-.44.02-.76.02-3.2,0-12.65-1.02-12.58-13.15Z"/>
          <path class="cls-1" d="m101.56,34.35h-.01c.19,12.59-10.01,13.22-12.87,13.15,2.84.25,12.88,1.91,12.87,13.07h.01c0-11.33,11.41-12.91,13.34-13.09-.18.01-.44.02-.76.02-3.2,0-12.65-1.02-12.58-13.15Z"/>
        </g>
        <g>
          <path class="cls-1" d="m137.78,0h-.01c.19,12.59-10.01,13.22-12.87,13.15,2.84.25,12.88,1.91,12.87,13.07h.01c0-11.33,11.41-12.91,13.34-13.09-.18.01-.44.02-.76.02-3.2,0-12.65-1.02-12.58-13.15Z"/>
          <path class="cls-1" d="m164,34.35h-.01c.19,12.59-10.01,13.22-12.87,13.15,2.84.25,12.88,1.91,12.87,13.07h.01c0-11.33,11.41-12.91,13.34-13.09-.18.01-.44.02-.76.02-3.2,0-12.65-1.02-12.58-13.15Z"/>
        </g>
        <g>
          <path class="cls-1" d="m200.23,0h-.01c.19,12.59-10.01,13.22-12.87,13.15,2.84.25,12.88,1.91,12.87,13.07h.01c0-11.33,11.41-12.91,13.34-13.09-.18.01-.44.02-.76.02-3.2,0-12.65-1.02-12.58-13.15Z"/>
          <path class="cls-1" d="m226.45,34.35h-.01c.19,12.59-10.01,13.22-12.87,13.15,2.84.25,12.88,1.91,12.87,13.07h.01c0-11.33,11.41-12.91,13.34-13.09-.18.01-.44.02-.76.02-3.2,0-12.65-1.02-12.58-13.15Z"/>
        </g>
        <g>
          <path class="cls-1" d="m262.68,0h-.01c.19,12.59-10.01,13.22-12.87,13.15,2.84.25,12.88,1.91,12.87,13.07h.01c0-11.33,11.41-12.91,13.34-13.09-.18.01-.44.02-.76.02-3.2,0-12.65-1.02-12.58-13.15Z"/>
          <path class="cls-1" d="m288.9,34.35h-.01c.19,12.59-10.01,13.22-12.87,13.15,2.84.25,12.88,1.91,12.87,13.07h.01c0-11.33,11.41-12.91,13.34-13.09-.18.01-.44.02-.76.02-3.2,0-12.65-1.02-12.58-13.15Z"/>
        </g>
        <g>
          <path class="cls-1" d="m325.12,0h-.01c.19,12.59-10.01,13.22-12.87,13.15,2.84.25,12.88,1.91,12.87,13.07h.01c0-11.33,11.41-12.91,13.34-13.09-.18.01-.44.02-.76.02-3.2,0-12.65-1.02-12.58-13.15Z"/>
          <path class="cls-1" d="m351.35,34.35h-.01c.19,12.59-10.01,13.22-12.87,13.15,2.84.25,12.88,1.91,12.87,13.07h.01c0-11.33,11.41-12.91,13.34-13.09-.18.01-.44.02-.76.02-3.2,0-12.65-1.02-12.58-13.15Z"/>
        </g>
        <g>
          <path class="cls-1" d="m387.57,0h-.01c.19,12.59-10.01,13.22-12.87,13.15,2.84.25,12.88,1.91,12.87,13.07h.01c0-11.33,11.41-12.91,13.34-13.09-.18.01-.44.02-.76.02-3.2,0-12.65-1.02-12.58-13.15Z"/>
          <path class="cls-1" d="m413.79,34.35h-.01c.19,12.59-10.01,13.22-12.87,13.15,2.84.25,12.88,1.91,12.87,13.07h.01c0-11.33,11.41-12.91,13.34-13.09-.18.01-.44.02-.76.02-3.2,0-12.65-1.02-12.58-13.15Z"/>
        </g>
        <g>
          <path class="cls-1" d="m450.02,0h-.01c.19,12.59-10.01,13.22-12.87,13.15,2.84.25,12.88,1.91,12.87,13.07h.01c0-11.33,11.41-12.91,13.34-13.09-.18.01-.44.02-.76.02-3.2,0-12.65-1.02-12.58-13.15Z"/>
          <path class="cls-1" d="m476.24,34.35h-.01c.19,12.59-10.01,13.22-12.87,13.15,2.84.25,12.88,1.91,12.87,13.07h.01c0-11.33,11.41-12.91,13.34-13.09-.18.01-.44.02-.76.02-3.2,0-12.65-1.02-12.58-13.15Z"/>
        </g>
        <g>
          <path class="cls-1" d="m512.47,0h-.01c.19,12.59-10.01,13.22-12.87,13.15,2.84.25,12.88,1.91,12.87,13.07h.01c0-11.33,11.41-12.91,13.34-13.09-.18.01-.44.02-.76.02-3.2,0-12.65-1.02-12.58-13.15Z"/>
          <path class="cls-1" d="m538.69,34.35h-.01c.19,12.59-10.01,13.22-12.87,13.15,2.84.25,12.88,1.91,12.87,13.07h.01c0-11.33,11.41-12.91,13.34-13.09-.18.01-.44.02-.76.02-3.2,0-12.65-1.02-12.58-13.15Z"/>
        </g>
        <g>
          <path class="cls-1" d="m574.91,0h-.01c.19,12.59-10.01,13.22-12.87,13.15,2.84.25,12.88,1.91,12.87,13.07h.01c0-11.33,11.41-12.91,13.34-13.09-.18.01-.44.02-.76.02-3.2,0-12.65-1.02-12.58-13.15Z"/>
          <path class="cls-1" d="m601.14,34.35h-.01c.19,12.59-10.01,13.22-12.87,13.15,2.84.25,12.88,1.91,12.87,13.07h.01c0-11.33,11.41-12.91,13.34-13.09-.18.01-.44.02-.76.02-3.2,0-12.65-1.02-12.58-13.15Z"/>
        </g>
        <g>
          <path class="cls-1" d="m637.36,0h-.01c.19,12.59-10.01,13.22-12.87,13.15,2.84.25,12.88,1.91,12.87,13.07h.01c0-11.33,11.41-12.91,13.34-13.09-.18.01-.44.02-.76.02-3.2,0-12.65-1.02-12.58-13.15Z"/>
          <path class="cls-1" d="m663.59,34.35h-.01c.19,12.59-10.01,13.22-12.87,13.15,2.84.25,12.88,1.91,12.87,13.07h.01c0-11.33,11.41-12.91,13.34-13.09-.18.01-.44.02-.76.02-3.2,0-12.65-1.02-12.58-13.15Z"/>
        </g>
        <g>
          <path class="cls-1" d="m699.81,0h-.01c.19,12.59-10.01,13.22-12.87,13.15,2.84.25,12.88,1.91,12.87,13.07h.01c0-11.33,11.41-12.91,13.34-13.09-.18.01-.44.02-.76.02-3.2,0-12.65-1.02-12.58-13.15Z"/>
          <path class="cls-1" d="m726.03,34.35h-.01c.19,12.59-10.01,13.22-12.87,13.15,2.84.25,12.88,1.91,12.87,13.07h.01c0-11.33,11.41-12.91,13.34-13.09-.18.01-.44.02-.76.02-3.2,0-12.65-1.02-12.58-13.15Z"/>
        </g>
        <g>
          <path class="cls-1" d="m762.26,0h-.01c.19,12.59-10.01,13.22-12.87,13.15,2.84.25,12.88,1.91,12.87,13.07h.01c0-11.33,11.41-12.91,13.34-13.09-.18.01-.44.02-.76.02-3.2,0-12.65-1.02-12.58-13.15Z"/>
          <path class="cls-1" d="m788.48,34.35h-.01c.19,12.59-10.01,13.22-12.87,13.15,2.84.25,12.88,1.91,12.87,13.07h.01c0-11.33,11.41-12.91,13.34-13.09-.18.01-.44.02-.76.02-3.2,0-12.65-1.02-12.58-13.15Z"/>
        </g>
        <g>
          <path class="cls-1" d="m824.7,0h-.01c.19,12.59-10.01,13.22-12.87,13.15,2.84.25,12.88,1.91,12.87,13.07h.01c0-11.33,11.41-12.91,13.34-13.09-.18.01-.44.02-.76.02-3.2,0-12.65-1.02-12.58-13.15Z"/>
          <path class="cls-1" d="m850.93,34.35h-.01c.19,12.59-10.01,13.22-12.87,13.15,2.84.25,12.88,1.91,12.87,13.07h.01c0-11.33,11.41-12.91,13.34-13.09-.18.01-.44.02-.76.02-3.2,0-12.65-1.02-12.58-13.15Z"/>
        </g>
        <g>
          <path class="cls-1" d="m887.15,0h-.01c.19,12.59-10.01,13.22-12.87,13.15,2.84.25,12.88,1.91,12.87,13.07h.01c0-11.33,11.41-12.91,13.34-13.09-.18.01-.44.02-.76.02-3.2,0-12.65-1.02-12.58-13.15Z"/>
          <path class="cls-1" d="m913.38,34.35h-.01c.19,12.59-10.01,13.22-12.87,13.15,2.84.25,12.88,1.91,12.87,13.07h.01c0-11.33,11.41-12.91,13.34-13.09-.18.01-.44.02-.76.02-3.2,0-12.65-1.02-12.58-13.15Z"/>
        </g>
        <g>
          <path class="cls-1" d="m949.6,0h-.01c.19,12.59-10.01,13.22-12.87,13.15,2.84.25,12.88,1.91,12.87,13.07h.01c0-11.33,11.41-12.91,13.34-13.09-.18.01-.44.02-.76.02-3.2,0-12.65-1.02-12.58-13.15Z"/>
          <path class="cls-1" d="m975.82,34.35h-.01c.19,12.59-10.01,13.22-12.87,13.15,2.84.25,12.88,1.91,12.87,13.07h.01c0-11.33,11.41-12.91,13.34-13.09-.18.01-.44.02-.76.02-3.2,0-12.65-1.02-12.58-13.15Z"/>
        </g>
      </g>
    </g>
  </g>
</svg>